<?xml version="1.0" ?><svg data-name="Layer 1" id="Layer_1" viewBox="0 0 512 512" xmlns="http://www.w3.org/2000/svg"><title/><path d="M256,0C114.615,0,0,114.615,0,256S114.615,512,256,512,512,397.385,512,256,397.385,0,256,0ZM397.237,340.541c-7.869,4.563-25.949,8.762-31.439,8.762s-5.82,6.024-5.49,10.222-1.683,10.405-13.395,7.666-25.123-4.713-36.014,1.826c-7.9,4.746-25.4,24.1-54.9,24.1s-46.994-19.349-54.9-24.1c-10.891-6.539-24.3-4.563-36.015-1.826s-13.725-3.468-13.394-7.666,0-10.222-5.491-10.222-23.57-4.2-31.439-8.762-6.99-13.143,1.372-13.143,16.745-2.738,37.607-21.905,21.776-38.333,21.776-40.7-7.48-9.371-20.5-11.683a25.22,25.22,0,0,1-13.906-8.059,9.243,9.243,0,0,1,1.3-13.781,13.256,13.256,0,0,1,14.1-.92c10.069,5.417,22.624,3.958,22.624,3.958a359.927,359.927,0,0,1-2.343-43.809c.366-21.9,15.737-71.19,79.2-71.19s78.836,49.286,79.2,71.19a359.927,359.927,0,0,1-2.343,43.809s12.554,1.459,22.623-3.958a13.256,13.256,0,0,1,14.1.92,9.243,9.243,0,0,1,1.3,13.781,25.216,25.216,0,0,1-13.906,8.059c-13.016,2.312-20.5,9.31-20.5,11.683s.916,21.539,21.777,40.7S387.5,327.4,395.865,327.4,405.106,335.977,397.237,340.541Z"/></svg>